<svg width="22" height="23" viewBox="0 0 22 23" fill="none" xmlns="http://www.w3.org/2000/svg">
<path fill-rule="evenodd" clip-rule="evenodd" d="M19.0491 3.45074C19.1132 3.51461 19.164 3.59047 19.1986 3.674C19.2333 3.75752 19.2511 3.84706 19.2511 3.93749C19.2511 4.02792 19.2333 4.11746 19.1986 4.20099C19.164 4.28451 19.1132 4.36038 19.0491 4.42424L3.92414 19.5492C3.79505 19.6783 3.61996 19.7509 3.43739 19.7509C3.25483 19.7509 3.07974 19.6783 2.95064 19.5492C2.82155 19.4201 2.74902 19.2451 2.74902 19.0625C2.74902 18.8799 2.82155 18.7048 2.95064 18.5757L18.0756 3.45074C18.1395 3.38672 18.2154 3.33592 18.2989 3.30126C18.3824 3.2666 18.472 3.24876 18.5624 3.24876C18.6528 3.24876 18.7424 3.2666 18.8259 3.30126C18.9094 3.33592 18.9853 3.38672 19.0491 3.45074Z" fill="#44435C"/>
<path fill-rule="evenodd" clip-rule="evenodd" d="M2.95076 3.45074C2.88673 3.51461 2.83594 3.59047 2.80128 3.674C2.76662 3.75752 2.74878 3.84706 2.74878 3.93749C2.74878 4.02792 2.76662 4.11746 2.80128 4.20099C2.83594 4.28451 2.88673 4.36038 2.95076 4.42424L18.0758 19.5492C18.2049 19.6783 18.3799 19.7509 18.5625 19.7509C18.7451 19.7509 18.9202 19.6783 19.0493 19.5492C19.1784 19.4201 19.2509 19.2451 19.2509 19.0625C19.2509 18.8799 19.1784 18.7048 19.0493 18.5757L3.92426 3.45074C3.8604 3.38672 3.78453 3.33592 3.701 3.30126C3.61748 3.2666 3.52794 3.24876 3.43751 3.24876C3.34708 3.24876 3.25754 3.2666 3.17401 3.30126C3.09049 3.33592 3.01462 3.38672 2.95076 3.45074Z" fill="#44435C"/>
</svg>
