<svg width="22" height="23" viewBox="0 0 22 23" fill="none" xmlns="http://www.w3.org/2000/svg">
<path d="M21.3153 3.16751C21.4438 3.29638 21.516 3.47092 21.516 3.65288C21.516 3.83485 21.4438 4.00939 21.3153 4.13826L19.8812 5.57376L17.1312 2.82376L18.5653 1.38826C18.6943 1.25937 18.8691 1.18697 19.0514 1.18697C19.2337 1.18697 19.4085 1.25937 19.5375 1.38826L21.3153 3.16613V3.16751ZM18.9091 6.54451L16.1591 3.79451L6.79122 13.1638C6.71555 13.2394 6.65858 13.3317 6.62485 13.4333L5.51797 16.7525C5.4979 16.813 5.49505 16.8779 5.50974 16.94C5.52443 17.002 5.55609 17.0587 5.60117 17.1038C5.64625 17.1489 5.70298 17.1805 5.76502 17.1952C5.82706 17.2099 5.89196 17.2071 5.95247 17.187L9.27172 16.0801C9.37315 16.0468 9.46542 15.9903 9.54122 15.9151L18.9091 6.54588V6.54451Z" fill="#44435C"/>
<path fill-rule="evenodd" clip-rule="evenodd" d="M1.375 19.0625C1.375 19.6095 1.5923 20.1341 1.97909 20.5209C2.36589 20.9077 2.89049 21.125 3.4375 21.125H18.5625C19.1095 21.125 19.6341 20.9077 20.0209 20.5209C20.4077 20.1341 20.625 19.6095 20.625 19.0625V10.8125C20.625 10.6302 20.5526 10.4553 20.4236 10.3264C20.2947 10.1974 20.1198 10.125 19.9375 10.125C19.7552 10.125 19.5803 10.1974 19.4514 10.3264C19.3224 10.4553 19.25 10.6302 19.25 10.8125V19.0625C19.25 19.2448 19.1776 19.4197 19.0486 19.5486C18.9197 19.6776 18.7448 19.75 18.5625 19.75H3.4375C3.25516 19.75 3.0803 19.6776 2.95136 19.5486C2.82243 19.4197 2.75 19.2448 2.75 19.0625V3.9375C2.75 3.75516 2.82243 3.5803 2.95136 3.45136C3.0803 3.32243 3.25516 3.25 3.4375 3.25H12.375C12.5573 3.25 12.7322 3.17757 12.8611 3.04864C12.9901 2.9197 13.0625 2.74484 13.0625 2.5625C13.0625 2.38016 12.9901 2.2053 12.8611 2.07636C12.7322 1.94743 12.5573 1.875 12.375 1.875H3.4375C2.89049 1.875 2.36589 2.0923 1.97909 2.47909C1.5923 2.86589 1.375 3.39049 1.375 3.9375V19.0625Z" fill="#44435C"/>
</svg>
