<svg width="12" height="12" viewBox="0 0 12 12" fill="none" xmlns="http://www.w3.org/2000/svg">
<path fill-rule="evenodd" clip-rule="evenodd" d="M7.94921 3.71825C7.9422 3.70967 7.93543 3.70094 7.92889 3.69206C7.79199 3.50594 7.76046 3.2548 7.88735 3.05693C8.03754 2.82272 8.35167 2.75235 8.56516 2.93077C9.07977 3.36086 9.48016 3.91538 9.72605 4.54513C10.0333 5.332 10.0835 6.19593 9.86957 7.0131C9.65562 7.83028 9.18845 8.55874 8.53504 9.09409C7.88162 9.62944 7.0755 9.94419 6.2322 9.99323C5.38891 10.0423 4.55174 9.82307 3.84068 9.36706C3.12961 8.91106 2.58117 8.24165 2.27394 7.45478C1.96671 6.66791 1.91648 5.80398 2.13044 4.98681C2.30168 4.3328 2.63511 3.73561 3.0964 3.24877C3.28776 3.0468 3.60793 3.0803 3.78426 3.29552C3.93323 3.47735 3.93102 3.73045 3.81661 3.93118C3.81115 3.94076 3.80544 3.95022 3.79947 3.95955C3.79849 3.96108 3.7975 3.96261 3.79651 3.96413C3.78028 3.98904 3.76224 4.01299 3.74248 4.0357C3.44145 4.38167 3.22243 4.79402 3.10513 5.24201C2.94507 5.85335 2.98265 6.49967 3.21249 7.08833C3.44233 7.677 3.85263 8.17779 4.38458 8.51894C4.91654 8.86008 5.54284 9.02406 6.17371 8.98738C6.80459 8.95069 7.40767 8.71523 7.8965 8.31472C8.38532 7.91422 8.73481 7.36925 8.89488 6.75791C9.05494 6.14657 9.01735 5.50025 8.78751 4.91159C8.61908 4.48021 8.35374 4.09603 8.01464 3.78728C7.99238 3.76701 7.97169 3.74532 7.95268 3.72245C7.95151 3.72106 7.95036 3.71965 7.94921 3.71825Z" fill="#A8A7B5"/>
<path fill-rule="evenodd" clip-rule="evenodd" d="M6.5 3C6.5 2.72386 6.72386 2.5 7 2.5H10C10.2761 2.5 10.5 2.72386 10.5 3C10.5 3.27614 10.2761 3.5 10 3.5H7.5V5C7.5 5.27614 7.27614 5.5 7 5.5C6.72386 5.5 6.5 5.27614 6.5 5V3Z" fill="#A8A7B5"/>
</svg>
