<svg width="22" height="22" viewBox="0 0 22 22" fill="none" xmlns="http://www.w3.org/2000/svg">
<path fill-rule="evenodd" clip-rule="evenodd" d="M9.5 8V11L5 17V19H11H17V17L12.5 11V8H11H9.5Z" fill="#C1C9E2"/>
<path d="M14.5 3H13.5C12.9477 3 12.5 3.44772 12.5 4V10.6667C12.5 10.883 12.5702 11.0936 12.7 11.2667L17.3 17.4C17.7944 18.0592 17.324 19 16.5 19H5.5C4.67595 19 4.20557 18.0592 4.7 17.4L9.3 11.2667C9.42982 11.0936 9.5 10.883 9.5 10.6667V4C9.5 3.44772 9.05228 3 8.5 3H7.5" stroke="#44435C"/>
</svg>
