<svg width="22" height="22" viewBox="0 0 22 22" fill="none" xmlns="http://www.w3.org/2000/svg">
<path fill-rule="evenodd" clip-rule="evenodd" d="M10 2.5H6C4.61929 2.5 3.5 3.61929 3.5 5V17C3.5 18.3807 4.61929 19.5 6 19.5H10V18.5H6C5.17157 18.5 4.5 17.8284 4.5 17V5C4.5 4.17157 5.17157 3.5 6 3.5H10V2.5ZM10 5.5H6V6.5H10V5.5ZM10 8.5H6V9.5H10V8.5ZM10 11.5H6V12.5H10V11.5ZM10 14.5H6V15.5H10V14.5Z" fill="#44435C"/>
<path d="M11 8V19H17V17L12.5 11V8H11Z" fill="#C1C9E2"/>
<path fill-rule="evenodd" clip-rule="evenodd" d="M11 19.5H16.5C17.7361 19.5 18.4416 18.0889 17.7 17.1L13.1 10.9667C13.0351 10.8801 13 10.7749 13 10.6667V4C13 3.72386 13.2239 3.5 13.5 3.5H14.5V2.5H13.5C12.6716 2.5 12 3.17157 12 4V10.6667C12 10.9912 12.1053 11.307 12.3 11.5667L16.9 17.7C17.1472 18.0296 16.912 18.5 16.5 18.5H11V19.5Z" fill="#44435C"/>
</svg>
