<svg width="22" height="22" viewBox="0 0 22 22" fill="none" xmlns="http://www.w3.org/2000/svg">
<path fill-rule="evenodd" clip-rule="evenodd" d="M4.89778 3.51761L3.93185 3.77643C2.86492 4.06231 2.23175 5.15899 2.51764 6.22592L5.36465 16.8511C5.65053 17.918 6.7472 18.5512 7.81414 18.2653L8.78006 18.0065C9.847 17.7206 10.4802 16.6239 10.1943 15.557L7.34727 4.93182C7.06138 3.86489 5.96471 3.23173 4.89778 3.51761ZM3.48356 5.9671C3.34062 5.43363 3.6572 4.8853 4.19067 4.74236L5.1566 4.48354C5.69006 4.34059 6.2384 4.65718 6.38134 5.19064L6.51075 5.6736L5.20675 6.023L5.46557 6.98893L6.76957 6.63952L7.28721 8.57137L5.98321 8.92078L6.24202 9.8867L7.54602 9.5373L8.06366 11.4691L6.75966 11.8186L7.01848 12.7845L8.32248 12.4351L8.84012 14.3669L7.53612 14.7163L7.79494 15.6823L9.09894 15.3329L9.22835 15.8158C9.37129 16.3493 9.05471 16.8976 8.52124 17.0406L7.55532 17.2994C7.02185 17.4423 6.47352 17.1257 6.33057 16.5923L3.48356 5.9671Z" fill="#44435C"/>
<path d="M13.4749 13.4246L13.8284 13.7782L14.182 13.4246L20.1924 7.41421C20.5829 7.02369 20.5829 6.39052 20.1924 6C19.8019 5.60948 19.1687 5.60948 18.7782 6L12.7678 12.0104L12.4142 12.364L12.7678 12.7175L13.4749 13.4246Z" stroke="#44435C"/>
<path d="M13.3786 14.2069C13.5106 14.1277 13.5988 13.9921 13.6176 13.8392C13.6364 13.6864 13.5837 13.5335 13.4749 13.4246L12.7678 12.7175C12.6589 12.6086 12.5059 12.556 12.3531 12.5748C12.2003 12.5936 12.0647 12.6818 11.9855 12.8138L10.9248 14.5816C10.8068 14.7783 10.8378 15.0301 11 15.1924C11.1622 15.3546 11.4141 15.3856 11.6108 15.2676L13.3786 14.2069Z" stroke="#44435C" stroke-linejoin="round"/>
</svg>
