<svg width="22" height="23" viewBox="0 0 22 23" fill="none" xmlns="http://www.w3.org/2000/svg">
<g clip-path="url(#clip0_223_960)">
<path d="M11.7081 1.90113C11.4725 1.88373 11.2363 1.87501 11 1.875V0.5C11.2702 0.500132 11.5404 0.510222 11.8099 0.53025L11.7081 1.90113ZM14.4636 2.51988C14.0229 2.34979 13.5702 2.21238 13.1093 2.10875L13.4104 0.76675C13.937 0.885 14.4554 1.04175 14.9586 1.237L14.4636 2.51988ZM16.3474 3.49612C16.1508 3.36502 15.9494 3.24118 15.7437 3.12488L16.4216 1.92863C16.8917 2.19501 17.3417 2.49557 17.7677 2.82787L16.9221 3.91275C16.7357 3.76732 16.544 3.62881 16.3474 3.4975V3.49612ZM18.8691 5.95738C18.5971 5.57097 18.297 5.20514 17.9712 4.86287L18.9667 3.91412C19.338 4.306 19.6817 4.72537 19.9939 5.16537L18.8691 5.95738ZM19.8921 7.81638C19.8019 7.59838 19.7037 7.38374 19.5979 7.17288L20.8257 6.55412C21.0686 7.03687 21.2754 7.5369 21.4445 8.05013L20.1382 8.4805C20.0644 8.25619 19.9823 8.03467 19.8921 7.81638ZM20.6209 11.2635C20.6098 10.791 20.5638 10.3199 20.4834 9.85413L21.8377 9.62037C21.9299 10.1511 21.9835 10.6901 21.9972 11.2291L20.6222 11.2635H20.6209ZM20.4407 13.3783C20.4861 13.1445 20.5232 12.9121 20.5521 12.677L21.9175 12.8461C21.8515 13.3826 21.7458 13.9134 21.6012 14.4342L20.2757 14.0671C20.339 13.8402 20.394 13.6106 20.4407 13.3783ZM19.1317 16.6494C19.3847 16.2506 19.6075 15.8326 19.8 15.4009L21.0567 15.9577C20.8367 16.4527 20.5824 16.9285 20.2936 17.385L19.1317 16.6494ZM17.8062 18.3062C17.974 18.1385 18.1349 17.9653 18.2875 17.7865L19.3297 18.6844C19.1532 18.889 18.9693 19.0872 18.7784 19.2784L17.8062 18.3062Z" fill="#44435C"/>
<path d="M10.9999 1.875C9.41711 1.87511 7.85877 2.26556 6.46292 3.01177C5.06707 3.75797 3.87678 4.83689 2.99748 6.15297C2.11818 7.46905 1.57702 8.98166 1.42192 10.5568C1.26682 12.132 1.50257 13.7211 2.10829 15.1834C2.71402 16.6457 3.67102 17.9361 4.89452 18.9402C6.11803 19.9443 7.57029 20.6312 9.12266 20.94C10.675 21.2488 12.2796 21.1701 13.7943 20.7107C15.3089 20.2512 16.6869 19.4254 17.8061 18.3062L18.7783 19.2784C17.4992 20.5582 15.9241 21.5028 14.1927 22.0284C12.4613 22.554 10.627 22.6444 8.85224 22.2917C7.07752 21.9389 5.4172 21.1539 4.01841 20.0061C2.61961 18.8583 1.52551 17.3832 0.83306 15.7115C0.140609 14.0398 -0.128818 12.2231 0.0486501 10.4224C0.226118 8.62166 0.845003 6.89251 1.85047 5.38815C2.85593 3.88379 4.21694 2.65065 5.81289 1.798C7.40884 0.945356 9.19046 0.49952 10.9999 0.5V1.875Z" fill="#44435C"/>
<path d="M10.3125 4.625C10.4948 4.625 10.6697 4.69743 10.7986 4.82636C10.9276 4.9553 11 5.13016 11 5.3125V12.4763L15.466 15.0282C15.6197 15.121 15.7311 15.2702 15.7762 15.4439C15.8214 15.6176 15.7969 15.8022 15.7078 15.958C15.6187 16.1139 15.4722 16.2287 15.2996 16.278C15.127 16.3273 14.9419 16.3071 14.784 16.2218L9.9715 13.4718C9.86628 13.4116 9.77881 13.3248 9.71796 13.22C9.65711 13.1152 9.62504 12.9962 9.625 12.875V5.3125C9.625 5.13016 9.69743 4.9553 9.82636 4.82636C9.9553 4.69743 10.1302 4.625 10.3125 4.625Z" fill="#44435C"/>
</g>
<defs>
<clipPath id="clip0_223_960">
<rect width="22" height="22" fill="white" transform="translate(0 0.5)"/>
</clipPath>
</defs>
</svg>
