<svg width="22" height="22" viewBox="0 0 22 22" fill="none" xmlns="http://www.w3.org/2000/svg">
<path fill-rule="evenodd" clip-rule="evenodd" d="M11.5 4.5C11.6326 4.5 11.7598 4.55268 11.8536 4.64645C11.9473 4.74021 12 4.86739 12 5V10H17C17.1326 10 17.2598 10.0527 17.3536 10.1464C17.4473 10.2402 17.5 10.3674 17.5 10.5C17.5 10.6326 17.4473 10.7598 17.3536 10.8536C17.2598 10.9473 17.1326 11 17 11H12V16C12 16.1326 11.9473 16.2598 11.8536 16.3536C11.7598 16.4473 11.6326 16.5 11.5 16.5C11.3674 16.5 11.2402 16.4473 11.1464 16.3536C11.0527 16.2598 11 16.1326 11 16V11H6C5.86739 11 5.74021 10.9473 5.64645 10.8536C5.55268 10.7598 5.5 10.6326 5.5 10.5C5.5 10.3674 5.55268 10.2402 5.64645 10.1464C5.74021 10.0527 5.86739 10 6 10H11V5C11 4.86739 11.0527 4.74021 11.1464 4.64645C11.2402 4.55268 11.3674 4.5 11.5 4.5Z" fill="#969696"/>
</svg>
