<svg width="22" height="22" viewBox="0 0 22 22" fill="none" xmlns="http://www.w3.org/2000/svg">
<rect x="1" y="3" width="20" height="17" rx="2" fill="white"/>
<rect x="3" y="4" width="16" height="3" fill="#C1C9E2" stroke="#C1C9E2"/>
<path fill-rule="evenodd" clip-rule="evenodd" d="M19 4.5H3V7.5H1V4.5C1 3.39543 1.89543 2.5 3 2.5H19C20.1046 2.5 21 3.39543 21 4.5V7.5H19V4.5ZM1 8.5H3V18.5H19V8.5H21V18.5C21 19.6046 20.1046 20.5 19 20.5H3C1.89543 20.5 1 19.6046 1 18.5V8.5ZM5.5 6.5C5.22386 6.5 5 6.72386 5 7C5 7.27614 5.22386 7.5 5.5 7.5H16.5C16.7761 7.5 17 7.27614 17 7C17 6.72386 16.7761 6.5 16.5 6.5H5.5ZM9 10.5C9 9.94772 9.44772 9.5 10 9.5H11C11.5523 9.5 12 9.94772 12 10.5C12 11.0523 11.5523 11.5 11 11.5H10C9.44771 11.5 9 11.0523 9 10.5ZM14 9.5C13.4477 9.5 13 9.94772 13 10.5C13 11.0523 13.4477 11.5 14 11.5H15C15.5523 11.5 16 11.0523 16 10.5C16 9.94772 15.5523 9.5 15 9.5H14ZM9 13.5C9 12.9477 9.44772 12.5 10 12.5H11C11.5523 12.5 12 12.9477 12 13.5C12 14.0523 11.5523 14.5 11 14.5H10C9.44771 14.5 9 14.0523 9 13.5ZM6 12.5C5.44772 12.5 5 12.9477 5 13.5C5 14.0523 5.44772 14.5 6 14.5H7C7.55228 14.5 8 14.0523 8 13.5C8 12.9477 7.55228 12.5 7 12.5H6Z" fill="#44435C"/>
</svg>
