<svg width="22" height="22" viewBox="0 0 22 22" fill="none" xmlns="http://www.w3.org/2000/svg">
<g clip-path="url(#clip0_246_893)">
<path d="M17 4C17.2652 4 17.5196 4.10536 17.7071 4.29289C17.8946 4.48043 18 4.73478 18 5V17C18 17.2652 17.8946 17.5196 17.7071 17.7071C17.5196 17.8946 17.2652 18 17 18H5C4.73478 18 4.48043 17.8946 4.29289 17.7071C4.10536 17.5196 4 17.2652 4 17V5C4 4.73478 4.10536 4.48043 4.29289 4.29289C4.48043 4.10536 4.73478 4 5 4H17ZM5 3C4.46957 3 3.96086 3.21071 3.58579 3.58579C3.21071 3.96086 3 4.46957 3 5L3 17C3 17.5304 3.21071 18.0391 3.58579 18.4142C3.96086 18.7893 4.46957 19 5 19H17C17.5304 19 18.0391 18.7893 18.4142 18.4142C18.7893 18.0391 19 17.5304 19 17V5C19 4.46957 18.7893 3.96086 18.4142 3.58579C18.0391 3.21071 17.5304 3 17 3H5Z" fill="white"/>
<path d="M13.9699 7.97001C14.1099 7.83128 14.2988 7.7532 14.4958 7.75266C14.6929 7.75211 14.8823 7.82915 15.023 7.9671C15.1637 8.10505 15.2444 8.29285 15.2478 8.48987C15.2512 8.6869 15.1768 8.87734 15.0409 9.02001L11.0489 14.01C10.9803 14.0839 10.8975 14.1432 10.8054 14.1844C10.7134 14.2255 10.614 14.2477 10.5132 14.2496C10.4123 14.2514 10.3122 14.233 10.2187 14.1952C10.1252 14.1575 10.0402 14.1013 9.96891 14.03L7.32391 11.384C7.25023 11.3153 7.19112 11.2325 7.15013 11.1405C7.10914 11.0485 7.0871 10.9492 7.08532 10.8485C7.08355 10.7478 7.10207 10.6478 7.13979 10.5544C7.17751 10.461 7.23366 10.3762 7.30488 10.305C7.37609 10.2337 7.46093 10.1776 7.55432 10.1399C7.6477 10.1022 7.74773 10.0836 7.84844 10.0854C7.94914 10.0872 8.04845 10.1092 8.14045 10.1502C8.23245 10.1912 8.31525 10.2503 8.38391 10.324L10.4779 12.417L13.9509 7.99201C13.9571 7.98426 13.9638 7.97691 13.9709 7.97001H13.9699Z" fill="white"/>
</g>
<defs>
<clipPath id="clip0_246_893">
<rect width="16" height="16" fill="white" transform="translate(3 3)"/>
</clipPath>
</defs>
</svg>
