<svg width="22" height="23" viewBox="0 0 22 23" fill="none" xmlns="http://www.w3.org/2000/svg">
<path fill-rule="evenodd" clip-rule="evenodd" d="M20.625 11.5C20.625 11.3177 20.5526 11.1428 20.4236 11.0139C20.2947 10.8849 20.1198 10.8125 19.9375 10.8125H3.72213L8.04926 6.48676C8.11318 6.42284 8.16388 6.34696 8.19848 6.26344C8.23307 6.17992 8.25088 6.09041 8.25088 6.00001C8.25088 5.90962 8.23307 5.8201 8.19848 5.73659C8.16388 5.65307 8.11318 5.57718 8.04926 5.51326C7.98534 5.44934 7.90945 5.39864 7.82594 5.36404C7.74242 5.32945 7.65291 5.31165 7.56251 5.31165C7.47211 5.31165 7.3826 5.32945 7.29908 5.36404C7.21556 5.39864 7.13968 5.44934 7.07576 5.51326L1.57576 11.0133C1.51173 11.0771 1.46094 11.153 1.42628 11.2365C1.39162 11.32 1.37378 11.4096 1.37378 11.5C1.37378 11.5904 1.39162 11.68 1.42628 11.7635C1.46094 11.847 1.51173 11.9229 1.57576 11.9868L7.07576 17.4868C7.13968 17.5507 7.21556 17.6014 7.29908 17.636C7.3826 17.6706 7.47211 17.6884 7.56251 17.6884C7.65291 17.6884 7.74242 17.6706 7.82594 17.636C7.90945 17.6014 7.98534 17.5507 8.04926 17.4868C8.11318 17.4228 8.16388 17.347 8.19848 17.2634C8.23307 17.1799 8.25088 17.0904 8.25088 17C8.25088 16.9096 8.23307 16.8201 8.19848 16.7366C8.16388 16.6531 8.11318 16.5772 8.04926 16.5133L3.72213 12.1875H19.9375C20.1198 12.1875 20.2947 12.1151 20.4236 11.9861C20.5526 11.8572 20.625 11.6824 20.625 11.5Z" fill="#44435C"/>
</svg>
